<mxfile host="Electron" modified="2023-04-01T14:43:11.229Z" agent="Mozilla/5.0 (Windows NT 10.0; Win64; x64) AppleWebKit/537.36 (KHTML, like Gecko) draw.io/21.1.2 Chrome/106.0.5249.199 Electron/21.4.3 Safari/537.36" etag="RlDS0TDK6YYayu22MdpJ" version="21.1.2" type="device">
  <diagram name="Страница 1" id="xXuhtH9OJHCZ35TXV_nL">
    <mxGraphModel dx="864" dy="516" grid="1" gridSize="10" guides="1" tooltips="1" connect="1" arrows="1" fold="1" page="1" pageScale="1" pageWidth="827" pageHeight="1169" math="0" shadow="0">
      <root>
        <mxCell id="0" />
        <mxCell id="1" parent="0" />
        <mxCell id="7ucaD9DnvfaT_rMe7VCV-1" value="Начало" style="ellipse;whiteSpace=wrap;html=1;" vertex="1" parent="1">
          <mxGeometry x="59.999999999999986" y="40" width="170" height="80" as="geometry" />
        </mxCell>
        <mxCell id="7ucaD9DnvfaT_rMe7VCV-2" value="Конец" style="ellipse;whiteSpace=wrap;html=1;" vertex="1" parent="1">
          <mxGeometry x="411.88" y="470" width="170" height="80" as="geometry" />
        </mxCell>
        <mxCell id="7ucaD9DnvfaT_rMe7VCV-4" value="Получение счета" style="shape=process;whiteSpace=wrap;html=1;backgroundOutline=1;" vertex="1" parent="1">
          <mxGeometry x="18.130000000000003" y="160" width="253.75" height="40" as="geometry" />
        </mxCell>
        <mxCell id="7ucaD9DnvfaT_rMe7VCV-5" value="Счет меньше по времени чем &lt;br&gt;последний рекорд в таблице?" style="rhombus;whiteSpace=wrap;html=1;" vertex="1" parent="1">
          <mxGeometry x="22.04" y="240" width="245.94" height="110" as="geometry" />
        </mxCell>
        <mxCell id="7ucaD9DnvfaT_rMe7VCV-6" value="нет" style="endArrow=classic;html=1;rounded=0;exitX=1;exitY=0.5;exitDx=0;exitDy=0;entryX=0.5;entryY=0;entryDx=0;entryDy=0;" edge="1" parent="1" source="7ucaD9DnvfaT_rMe7VCV-5" target="7ucaD9DnvfaT_rMe7VCV-7">
          <mxGeometry x="-0.0002" width="50" height="50" relative="1" as="geometry">
            <mxPoint x="390" y="390" as="sourcePoint" />
            <mxPoint x="510" y="295" as="targetPoint" />
            <Array as="points">
              <mxPoint x="497" y="295" />
            </Array>
            <mxPoint as="offset" />
          </mxGeometry>
        </mxCell>
        <mxCell id="7ucaD9DnvfaT_rMe7VCV-7" value="Вывести таблицу" style="shape=process;whiteSpace=wrap;html=1;backgroundOutline=1;" vertex="1" parent="1">
          <mxGeometry x="370.01" y="390" width="253.75" height="40" as="geometry" />
        </mxCell>
        <mxCell id="7ucaD9DnvfaT_rMe7VCV-8" value="Сравнить с остальными рекордами и записать в таблицу" style="shape=process;whiteSpace=wrap;html=1;backgroundOutline=1;" vertex="1" parent="1">
          <mxGeometry x="18.129999999999985" y="390" width="253.75" height="40" as="geometry" />
        </mxCell>
        <mxCell id="7ucaD9DnvfaT_rMe7VCV-9" value="да" style="endArrow=classic;html=1;rounded=0;exitX=0.5;exitY=1;exitDx=0;exitDy=0;entryX=0.5;entryY=0;entryDx=0;entryDy=0;" edge="1" parent="1" source="7ucaD9DnvfaT_rMe7VCV-5" target="7ucaD9DnvfaT_rMe7VCV-8">
          <mxGeometry width="50" height="50" relative="1" as="geometry">
            <mxPoint x="390" y="370" as="sourcePoint" />
            <mxPoint x="440" y="320" as="targetPoint" />
          </mxGeometry>
        </mxCell>
        <mxCell id="7ucaD9DnvfaT_rMe7VCV-13" value="" style="endArrow=classic;html=1;rounded=0;exitX=1;exitY=0.5;exitDx=0;exitDy=0;entryX=0;entryY=0.5;entryDx=0;entryDy=0;" edge="1" parent="1" source="7ucaD9DnvfaT_rMe7VCV-8" target="7ucaD9DnvfaT_rMe7VCV-7">
          <mxGeometry width="50" height="50" relative="1" as="geometry">
            <mxPoint x="390" y="370" as="sourcePoint" />
            <mxPoint x="440" y="320" as="targetPoint" />
          </mxGeometry>
        </mxCell>
        <mxCell id="7ucaD9DnvfaT_rMe7VCV-14" value="" style="endArrow=classic;html=1;rounded=0;exitX=0.5;exitY=1;exitDx=0;exitDy=0;entryX=0.5;entryY=0;entryDx=0;entryDy=0;" edge="1" parent="1" source="7ucaD9DnvfaT_rMe7VCV-7" target="7ucaD9DnvfaT_rMe7VCV-2">
          <mxGeometry width="50" height="50" relative="1" as="geometry">
            <mxPoint x="390" y="470" as="sourcePoint" />
            <mxPoint x="440" y="420" as="targetPoint" />
          </mxGeometry>
        </mxCell>
        <mxCell id="7ucaD9DnvfaT_rMe7VCV-15" value="" style="endArrow=classic;html=1;rounded=0;exitX=0.5;exitY=1;exitDx=0;exitDy=0;entryX=0.5;entryY=0;entryDx=0;entryDy=0;" edge="1" parent="1" source="7ucaD9DnvfaT_rMe7VCV-1" target="7ucaD9DnvfaT_rMe7VCV-4">
          <mxGeometry width="50" height="50" relative="1" as="geometry">
            <mxPoint x="390" y="370" as="sourcePoint" />
            <mxPoint x="440" y="320" as="targetPoint" />
          </mxGeometry>
        </mxCell>
        <mxCell id="7ucaD9DnvfaT_rMe7VCV-16" value="" style="endArrow=classic;html=1;rounded=0;exitX=0.5;exitY=1;exitDx=0;exitDy=0;entryX=0.5;entryY=0;entryDx=0;entryDy=0;" edge="1" parent="1" source="7ucaD9DnvfaT_rMe7VCV-4" target="7ucaD9DnvfaT_rMe7VCV-5">
          <mxGeometry width="50" height="50" relative="1" as="geometry">
            <mxPoint x="390" y="370" as="sourcePoint" />
            <mxPoint x="440" y="320" as="targetPoint" />
          </mxGeometry>
        </mxCell>
      </root>
    </mxGraphModel>
  </diagram>
</mxfile>
